<?xml version="1.0" encoding="UTF-8"?>
<!DOCTYPE svg PUBLIC "-//W3C//DTD SVG 1.1//EN" "http://www.w3.org/Graphics/SVG/1.1/DTD/svg11.dtd">
<!-- Creator: CorelDRAW 2018 (64 Bit) -->
<svg xmlns="http://www.w3.org/2000/svg" xml:space="preserve" width="150mm" height="150mm" version="1.1" style="shape-rendering:geometricPrecision; text-rendering:geometricPrecision; image-rendering:optimizeQuality; fill-rule:evenodd; clip-rule:evenodd"
viewBox="0 0 15000000 15000000"
 xmlns:xlink="http://www.w3.org/1999/xlink">
 <defs>
  <style type="text/css">
   <![CDATA[
    .str1 {stroke:#A00C57;stroke-width:20000;stroke-miterlimit:22.9256}
    .str2 {stroke:#E7511E;stroke-width:20000;stroke-miterlimit:22.9256}
    .str0 {stroke:#ED3237;stroke-width:20000;stroke-miterlimit:22.9256}
    .fil5 {fill:#30A66A}
    .fil0 {fill:#56C2E8}
    .fil3 {fill:#A00C57}
    .fil1 {fill:#E0001A}
    .fil4 {fill:#E7511E}
    .fil2 {fill:#FCE909}
   ]]>
  </style>
 </defs>
 <g id="Capa_x0020_1">
  <metadata id="CorelCorpID_0Corel-Layer"/>
  <path class="fil0" d="M5936570 11987240c-526280,-384020 -984400,-688130 -1137220,-1535050 -626240,-1273120 341970,-5416320 1024070,-6305540l12470 -78340c-390350,-225300 -1122750,-1250420 -1898460,-1266850 -832060,-17610 -1462320,849620 -1737600,1409170 -559400,266490 -764510,124200 -1318880,584520 -378350,314130 -666140,643580 -550710,1275930 334710,1833630 3544840,5546970 5606330,5916160z"/>
  <path class="fil1 str0" d="M8019220 11647740c-211580,102750 -351610,250150 -650520,363800 -287180,109150 -506430,103810 -827740,155350 1869430,826730 6115270,-48430 7526380,-1029900 938770,-652960 579000,-1836550 169530,-2373580 -392800,-515190 -267760,-128200 -179410,-841060 78260,-631470 -164350,-1424330 -536870,-1720320 -487670,-387510 -1417740,-261540 -2083470,-244620l-18050 11390c-88440,877060 -906830,2604060 -1294450,3263180 -465350,791420 -1395920,2127830 -2105400,2415760z"/>
  <path class="fil2" d="M5835890 4068310l-12470 78340c651280,621920 1521020,1837150 1949440,2834640 515190,-132160 1115760,-414310 1690520,-594020 632490,-197760 1252100,-301440 1955690,-418470l18050 -11390c456580,-1381510 294450,-2465590 -1153760,-2774760 -938140,-200270 -718580,234410 -1120380,-189040 -341250,-359610 -1303170,-1010860 -2059530,-642780 -459250,223510 -992320,1122060 -1267560,1717480z"/>
  <path class="fil3 str1" d="M4799350 10452190c152820,846920 610940,1151030 1137220,1535050l604390 179650c321310,-51540 540560,-46200 827740,-155350 298910,-113650 438940,-261050 650520,-363800 178580,-332860 400720,-460370 531690,-996690 115410,-472400 99890,-921790 24130,-1398600 -98090,-617490 -455220,-1791740 -797990,-2204020 -478240,72040 -1710080,921220 -1980650,1204910 -475890,499030 -1139640,1063250 -997050,2198850z"/>
  <path class="fil4 str2" d="M7772860 6981290l4190 67140c342770,412280 699900,1586530 797990,2204020 75760,476810 91280,926200 -24130,1398600 -130970,536320 -353110,663830 -531690,996690 709480,-287930 1640050,-1624340 2105400,-2415760 387620,-659120 1206010,-2386120 1294450,-3263180 -703590,117030 -1323200,220710 -1955690,418470 -574760,179710 -1175330,461860 -1690520,594020z"/>
  <path class="fil5" d="M4799350 10452190c-142590,-1135600 521160,-1699820 997050,-2198850 270570,-283690 1502410,-1132870 1980650,-1204910l-4190 -67140c-428420,-997490 -1298160,-2212720 -1949440,-2834640 -682100,889220 -1650310,5032420 -1024070,6305540z"/>
 </g>
</svg>
