<svg xmlns="http://www.w3.org/2000/svg" viewBox="0 0 274.12 195.88"><defs><style>.cls-1{fill:#56c1e7;}.cls-2{fill:#fbe809;}.cls-3{fill:#9f0c57;}.cls-4{fill:#e6511e;}.cls-5{fill:#30a56a;}.cls-6{fill:#df001a;}</style></defs><g id="Capa_2" data-name="Capa 2"><g id="Capa_1-2" data-name="Capa 1"><path class="cls-1" d="M106.53,185.69a51.54,51.54,0,0,1-12.34-4.09c-9.5-4.35-18-10.22-26.17-16.71a222.72,222.72,0,0,1-21.45-19.63,265.69,265.69,0,0,1-20.63-24.08A185.1,185.1,0,0,1,6.59,90.42a70.17,70.17,0,0,1-6-16.75c-1-4.79-.91-9.51,1.11-14.07A24.21,24.21,0,0,1,7,52.27a62.89,62.89,0,0,1,7.24-6.07c4.07-2.94,8.71-4.42,13.51-5.58a43.42,43.42,0,0,0,7.34-2.56,3,3,0,0,0,1.59-1.51,60.86,60.86,0,0,1,13-17.46c4.37-4,9.3-7,15.23-8.08a20.69,20.69,0,0,1,12.59,1.7,49.51,49.51,0,0,1,12.52,8.52c4.16,3.73,8.21,7.58,12.35,11.34.94.85,2,1.53,3.06,2.29.41.6.09,1.17,0,1.75C100,44.76,97,54,94.09,63.18a268.65,268.65,0,0,0-7.46,30c-1.57,8.13-2.8,16.3-3.57,24.54-.41,4.33-.63,8.67-.72,13a83.28,83.28,0,0,0,1.44,18.92c.45,2.16,1.25,4.21,1.88,6.31,1.09,6.39,3.22,12.33,7.32,17.48a50.52,50.52,0,0,0,8.77,8.27c1.26,1,2.55,1.91,3.84,2.84C106,184.84,106.55,185.05,106.53,185.69Z"/><path class="cls-2" d="M105.35,36.49a6,6,0,0,1,.15-1.63,136.53,136.53,0,0,1,11.07-19.43,54,54,0,0,1,9.59-11c4.7-3.91,10.2-5,16.08-4.22,9.31,1.2,17.08,5.72,24.13,11.66,1.67,1.41,3.19,3,4.76,4.55a4.6,4.6,0,0,0,5,1.26c4.9-1.55,9.8-.69,14.66.37,5.75,1.25,11.18,3.26,15.87,6.94a25.54,25.54,0,0,1,9.67,17.57c1.06,8.33-.44,16.38-2.72,24.34-.36,1.22-.74,2.44-1.1,3.66-.19.8-.92.65-1.44.74-4.29.74-8.59,1.45-12.87,2.24A188.27,188.27,0,0,0,172,80c-5.49,1.85-10.87,4-16.28,6.06-3.85,1.47-7.74,2.81-11.69,4a3.38,3.38,0,0,1-1.41.23c-.59-.12-.81-.61-1-1.08a184.28,184.28,0,0,0-19.42-32.56A148,148,0,0,0,106,37.57C105.73,37.27,105.35,37,105.35,36.49Z"/><path class="cls-3" d="M106.53,185.69c-3.16-2.48-6.47-4.77-9.46-7.47a35.92,35.92,0,0,1-11.64-22c-.05-1.58-.35-3.14-.38-4.74-.17-9.65,3.12-18,9-25.54,2-2.58,4.33-4.9,6.52-7.33,8.6-9.52,19.33-16.1,30.29-22.4a54.5,54.5,0,0,1,8.34-3.89,6.75,6.75,0,0,1,3.13-.65A3.77,3.77,0,0,1,143.55,93a61.32,61.32,0,0,1,6.79,13.84A140.11,140.11,0,0,1,158,135c1.32,8.76,1.42,17.48-.79,26.15a35.93,35.93,0,0,1-6.32,12.8c-1.5,2-2.78,4.09-4.09,6.19a59,59,0,0,1-5.57,3.69,34.36,34.36,0,0,1-16,5.39c-1.62.17-3.24.38-4.86.61-.46,0-.9-.13-1.36-.15-3.73-1.1-7.46-2.19-11.18-3.31A7.5,7.5,0,0,1,106.53,185.69Z"/><path class="cls-4" d="M146.62,180a50.41,50.41,0,0,1,5.17-7.9,35,35,0,0,0,5.77-13.92,60.3,60.3,0,0,0,1-13.21,92.61,92.61,0,0,0-3.27-21.32,137.12,137.12,0,0,0-8.66-24.68,33.74,33.74,0,0,0-4.38-7.13,1.92,1.92,0,0,1,.18-1.68,118.36,118.36,0,0,0,14-4.65c9.64-3.7,19.29-7.39,29.41-9.69,7.74-1.75,15.54-3.15,23.36-4.47a10.74,10.74,0,0,0,3.35-.72c5.35-.19,10.69-.45,16-.56a59.08,59.08,0,0,1,15.23,1.35,20.07,20.07,0,0,1,14,10.89,46,46,0,0,1,4.71,27.41,56.07,56.07,0,0,1-1.41,7,2.23,2.23,0,0,0,.5,2.21c1.46,1.69,3,3.36,4.29,5.16a39.79,39.79,0,0,1,8.27,24.15c0,9.31-4,16.63-11.65,21.88a95.54,95.54,0,0,1-20.21,10.06,242.1,242.1,0,0,1-45.14,12.06,232.85,232.85,0,0,1-38.46,3.66c-10.73.06-21.38-.64-31.8-3.46a49.2,49.2,0,0,1-7.88-2.79l1.41-.07a3,3,0,0,1,1.17.25,84,84,0,0,0,20.3,4.5,162.81,162.81,0,0,0,23.57.6,196.78,196.78,0,0,0,21.93-2A284.09,284.09,0,0,0,217.7,187,199.82,199.82,0,0,0,247.92,177a84.94,84.94,0,0,0,14.14-7.56A24.63,24.63,0,0,0,273,152.7a33,33,0,0,0-.94-14.11,41.45,41.45,0,0,0-10.11-18,4.89,4.89,0,0,1-1.42-5.08,43.51,43.51,0,0,0,1.57-14,45.31,45.31,0,0,0-5.59-19.9c-3.1-5.5-7.94-8.5-14-9.7a46.9,46.9,0,0,0-9.75-1c-2.76,0-5.52,0-8.27,0-3.59.06-7.18.36-10.76.46-.86,0-1.06.54-1.16,1.23A96.36,96.36,0,0,1,207.87,90c-2.49,7.3-5.52,14.39-8.68,21.43-2,4.41-4.13,8.74-6.3,13.06A208.08,208.08,0,0,1,176,151.9a155.58,155.58,0,0,1-12.24,15.2c-4.16,4.5-8.53,8.78-14,11.78C148.82,179.42,147.88,180.22,146.62,180Z"/><path class="cls-5" d="M142.44,90.11c-.05.56.31,1.17-.18,1.68a36.16,36.16,0,0,0-10.18,4.09A129.19,129.19,0,0,0,108,111.93c-7.44,6.47-14.48,13.45-18.92,22.51a36.94,36.94,0,0,0-3.5,20.26c.05.49.26,1-.14,1.49-2.63-6.71-3.33-13.73-3.46-20.86A151.25,151.25,0,0,1,82.56,119a268.85,268.85,0,0,1,5.13-32.64A255.18,255.18,0,0,1,96.21,55.6c2.18-6.21,4.54-12.36,8.16-17.92a3,3,0,0,1,1-1.19,83.24,83.24,0,0,1,8.45,9,197.76,197.76,0,0,1,26.84,40.9C141.25,87.6,141.84,88.86,142.44,90.11Z"/><path class="cls-6" d="M146.62,180a27.93,27.93,0,0,0,8.29-4.91,66.56,66.56,0,0,0,6.77-6.24,161.19,161.19,0,0,0,13.95-17,212.9,212.9,0,0,0,20.74-35.07,251,251,0,0,0,12.86-31.92,73,73,0,0,0,3-12.88c.09-.77.49-.9,1.12-.88,2.47.05,4.95-.14,7.4-.3,4.72-.31,9.43-.26,14.13-.13a34.82,34.82,0,0,1,13.23,2.75,18.72,18.72,0,0,1,8.77,8.34,46.14,46.14,0,0,1,3.89,33.91,4.43,4.43,0,0,0,1.24,4.62,42.18,42.18,0,0,1,9.51,15.59,35.7,35.7,0,0,1,2.1,13.61c-.44,7.27-3.16,13.48-8.88,18.24-4.56,3.78-9.81,6.38-15.14,8.83a156,156,0,0,1-18.55,7,252.52,252.52,0,0,1-25.41,6.55q-8.47,1.72-17,3c-3.73.56-7.49.89-11.24,1.31a198.32,198.32,0,0,1-27.35.86,98.49,98.49,0,0,1-19.48-2.42A64,64,0,0,1,121.2,190a1.56,1.56,0,0,1-.81-.47,20.21,20.21,0,0,1,4.56-.69,35.16,35.16,0,0,0,16.65-5.69C143.25,182.07,144.94,181,146.62,180Z"/></g></g></svg>